<?xml version="1.0" encoding="utf-8"?>
<!-- Generator: Adobe Illustrator 27.0.0, SVG Export Plug-In . SVG Version: 6.00 Build 0)  -->
<svg version="1.1" id="_レイヤー_1" xmlns="http://www.w3.org/2000/svg" xmlns:xlink="http://www.w3.org/1999/xlink" x="0px"
	 y="0px" viewBox="0 0 912.8 827.5" style="enable-background:new 0 0 912.8 827.5;" xml:space="preserve">
<style type="text/css">
	.st0{fill:#FBE706;}
</style>
<g>
	<circle class="st0" cx="456.4" cy="413.8" r="348.5"/>
	<g>
		<g>
			<circle cx="409.9" cy="244.7" r="26.2"/>
		</g>
		<g>
			<circle cx="500.3" cy="244.7" r="26.2"/>
		</g>
	</g>
	<g>
		<path d="M595.5,309.3h-14.9c-11.3,0-20.4,9.1-20.4,20.4V478c0,68.6-38.1,107.9-104.5,107.9S351.3,546.6,351.3,478V329.7
			c0-11.3-9.1-20.4-20.4-20.4H316c-11.3,0-20.4,9.1-20.4,20.4V478c0,100.2,61.7,162.5,160.2,162.5S616,578.3,616,478V329.7
			C616,318.4,606.8,309.3,595.5,309.3z"/>
	</g>
</g>
</svg>
